<svg xmlns="http://www.w3.org/2000/svg" viewBox="0 0 174.098 67.507"><style>svg{background:rgba(252,252,252,0.8)}</style><path d="m19.154 29.007-.4.4v16.508l.4.4h3.202l.401-.4V29.407l-.401-.4zm31.621 17.708c4.903 0 7.705-2.901 8.205-6.103l-.4-.4h-3.302l-.4.4c-.801 2.001-2.402 2.401-4.103 2.401-4.903 0-5.304-4.102-5.304-4.902l.4-.4H59.38l.4-.4V36.11c0-5.703-2.902-10.605-9.406-10.605s-9.406 4.902-9.406 10.605c.101 6.103 3.303 10.605 9.807 10.605m4.103-12.206h-9.006l-.4-.4c0-1.201.4-4.902 4.903-4.902s4.903 3.702 4.903 4.902l-.4.4zm69.146 12.206c4.903 0 7.705-2.901 8.205-6.103l-.4-.4h-3.302l-.4.4c-.801 2.001-2.402 2.401-4.103 2.401-4.903 0-5.304-4.102-5.304-4.902l.4-.4h13.509l.4-.4V36.11c0-5.703-2.902-10.605-9.406-10.605-6.504 0-9.406 4.902-9.406 10.605 0 6.103 3.302 10.605 9.807 10.605m4.102-12.206h-9.006l-.4-.4c0-1.201.4-4.902 4.903-4.902s4.903 3.702 4.903 4.902l-.4.4zm12.809 1.501c0-4.502 2.001-6.903 5.704-6.903 3.202 0 4.503 1.601 4.903 3.201l.4.4h3.002l.4-.4c-.4-3.702-3.002-6.903-8.706-6.903-6.104 0-9.706 4.102-9.706 10.605s3.702 10.605 9.706 10.605c5.704 0 8.305-3.201 8.706-6.903l-.4-.4h-3.002l-.4.4c-.4 1.601-1.601 3.201-4.903 3.201-3.603 0-5.704-2.401-5.704-6.903M19.154 21.203l-.4.4v3.302l.3.4h3.302l.401-.4v-3.302l-.401-.4zm18.312 4.102h-4.503l-.4-.4v-3.302l-.4-.4h-3.302l-.4.4v20.61l.4.4h3.302l.4-.4V29.407l.4-.4h4.503l.4-.4v-2.901l-.4-.401zm45.731 7.203v-3.101l-.401-.4h-3.302l-.4.4v3.101l.4.501h3.302z"/><path d="M91.602 38.911c0 2.501-2.101 4.102-5.404 4.102-2.502 0-3.702-.8-3.702-2.901s1.701-3.302 5.404-3.302c2.101 0 3.302.4 3.302.4l.4.4v1.301zM87.7 25.305h-4.003l-.4.4v2.901l.4.4H87.6c2.802 0 4.003.9 4.003 3.702v.8l-.4.4s-1.701-.4-3.702-.4c-5.404 0-9.106 2.101-9.106 6.603 0 4.102 2.502 6.603 7.005 6.603 4.103 0 5.804-2.501 5.804-2.501h.4l.4 1.701.4.4h2.902l.4-.4V34.309c.099-6.103-1.902-9.004-8.006-9.004m-19.914 3.702h-3.202l-.5.4v16.508l.5.4h3.302l.401-.4V29.407zm.601-.4v-2.902l.4-.4h6.905l.4.4v2.902l-.4.4h-6.805zm42.028-3.302h-4.503l-.4-.4v-3.302l-.4-.4h-3.302l-.4.4v20.61l.4.4h3.302l.4-.4V29.407l.4-.4h4.503l.4-.4v-2.901l-.4-.401zM37.466 42.613h-4.102l-.401.4v2.902l.401.4h4.102l.401-.4v-2.902zm72.949 0h-4.103l-.4.4v2.902l.4.4h4.103l.4-.4v-2.902z"/></svg>
